{"accessors":[{"bufferView":2,"componentType":5126,"count":1357,"max":[0.006344437599182129,0.3727821111679077,0.0048871710896492004],"min":[-0.7509317398071289,-0.3603131175041199,-0.14237254858016968],"type":"VEC3"},{"bufferView":2,"byteOffset":16284,"componentType":5126,"count":1357,"max":[1,1,1],"min":[-1,-1,-1],"type":"VEC3"},{"bufferView":3,"componentType":5126,"count":1357,"max":[0.9861812591552734,0.979047954082489,0.9999503493309021,1],"min":[-0.9441587328910828,-1,-0.9675717353820801,1],"type":"VEC4"},{"bufferView":1,"componentType":5126,"count":1357,"max":[0.9182221293449402,0.919672966003418],"min":[0.1031423956155777,0.2751971483230591],"type":"VEC2"},{"bufferView":1,"byteOffset":10856,"componentType":5126,"count":1357,"max":[0,0],"min":[0,0],"type":"VEC2"},{"bufferView":1,"byteOffset":21712,"componentType":5126,"count":1357,"max":[0.9182221293449402,0.919672966003418],"min":[0.1031423956155777,0.2751971483230591],"type":"VEC2"},{"bufferView":1,"byteOffset":32568,"componentType":5126,"count":1357,"max":[0.9182221293449402,0.919672966003418],"min":[0.1031423956155777,0.2751971483230591],"type":"VEC2"},{"bufferView":1,"byteOffset":43424,"componentType":5126,"count":1357,"max":[0.9182221293449402,0.919672966003418],"min":[0.1031423956155777,0.2751971483230591],"type":"VEC2"},{"bufferView":0,"componentType":5125,"count":4722,"max":[1356],"min":[0],"type":"SCALAR"},{"bufferView":2,"byteOffset":32568,"componentType":5126,"count":5746,"max":[0.6909768581390381,4.884531497955322,0.690976619720459],"min":[-1.8123178482055664,-0.0031228065490722656,-3.3940553665161133],"type":"VEC3"},{"bufferView":2,"byteOffset":101520,"componentType":5126,"count":5746,"max":[1,1,1],"min":[-1,-1,-1],"type":"VEC3"},{"bufferView":3,"byteOffset":21712,"componentType":5126,"count":5746,"max":[1,1,1,1],"min":[-1,-1,-1,1],"type":"VEC4"},{"bufferView":1,"byteOffset":54280,"componentType":5126,"count":5746,"max":[0.9896103143692017,0.9700385332107544],"min":[0.010389658622443676,0.010389658622443676],"type":"VEC2"},{"bufferView":1,"byteOffset":100248,"componentType":5126,"count":5746,"max":[1.190976858139038,1.190976858139038],"min":[-0.1909767985343933,-0.3043743371963501],"type":"VEC2"},{"bufferView":1,"byteOffset":146216,"componentType":5126,"count":5746,"max":[0.9896103143692017,0.9700385332107544],"min":[0.010389658622443676,0.010389658622443676],"type":"VEC2"},{"bufferView":1,"byteOffset":192184,"componentType":5126,"count":5746,"max":[0.9896103143692017,0.9700385332107544],"min":[0.010389658622443676,0.010389658622443676],"type":"VEC2"},{"bufferView":1,"byteOffset":238152,"componentType":5126,"count":5746,"max":[0.9896103143692017,0.9700385332107544],"min":[0.010389658622443676,0.010389658622443676],"type":"VEC2"},{"bufferView":0,"byteOffset":18888,"componentType":5125,"count":18552,"max":[5745],"min":[0],"type":"SCALAR"},{"bufferView":2,"byteOffset":170472,"componentType":5126,"count":545,"max":[0.22565774619579315,0.44013333320617676,0.23861359059810638],"min":[-0.21739168465137482,-0.016579486429691315,-0.02105124294757843],"type":"VEC3"},{"bufferView":2,"byteOffset":177012,"componentType":5126,"count":545,"max":[1,0.9907473921775818,0.9998736381530762],"min":[-1,-0.9521552324295044,-0.9874874949455261],"type":"VEC3"},{"bufferView":3,"byteOffset":113648,"componentType":5126,"count":545,"max":[1,0.9874880313873291,0.9842641949653625,1],"min":[-1,-0.9874867796897888,-0.9823436141014099,1],"type":"VEC4"},{"bufferView":1,"byteOffset":284120,"componentType":5126,"count":545,"max":[0.8803616166114807,0.9183318614959717],"min":[0.1031423956155777,0.21797925233840942],"type":"VEC2"},{"bufferView":1,"byteOffset":288480,"componentType":5126,"count":545,"max":[0,0],"min":[0,0],"type":"VEC2"},{"bufferView":1,"byteOffset":292840,"componentType":5126,"count":545,"max":[0.8803616166114807,0.9183318614959717],"min":[0.1031423956155777,0.21797925233840942],"type":"VEC2"},{"bufferView":1,"byteOffset":297200,"componentType":5126,"count":545,"max":[0.8803616166114807,0.9183318614959717],"min":[0.1031423956155777,0.21797925233840942],"type":"VEC2"},{"bufferView":1,"byteOffset":301560,"componentType":5126,"count":545,"max":[0.8803616166114807,0.9183318614959717],"min":[0.1031423956155777,0.21797925233840942],"type":"VEC2"},{"bufferView":0,"byteOffset":93096,"componentType":5125,"count":1578,"max":[544],"min":[0],"type":"SCALAR"},{"bufferView":4,"componentType":5126,"count":47,"max":[5.833333492279053],"min":[0.0416666679084301],"type":"SCALAR"},{"bufferView":6,"componentType":5126,"count":47,"max":[0,0.9999885559082031,0,1],"min":[0,-0.9998579025268555,0,-0.006505757570266724],"type":"VEC4"},{"bufferView":4,"byteOffset":188,"componentType":5126,"count":3,"max":[5.833333492279053],"min":[0.0416666679084301],"type":"SCALAR"},{"bufferView":5,"componentType":5126,"count":3,"max":[1,1,1],"min":[0.9999999403953552,1,0.9999999403953552],"type":"VEC3"},{"bufferView":4,"byteOffset":200,"componentType":5126,"count":60,"max":[5.833333492279053],"min":[0.0416666679084301],"type":"SCALAR"},{"bufferView":6,"byteOffset":752,"componentType":5126,"count":60,"max":[0.39821627736091614,0.0669398307800293,-0.04092542827129364,0.995533287525177],"min":[-0.8505511283874512,-0.03134030103683472,-0.07835019379854202,0.5200067162513733],"type":"VEC4"}],"animations":[{"channels":[{"sampler":0,"target":{"node":4,"path":"rotation"}},{"sampler":1,"target":{"node":4,"path":"scale"}},{"sampler":2,"target":{"node":8,"path":"rotation"}}],"name":"Animation","samplers":[{"input":27,"interpolation":"LINEAR","output":28},{"input":29,"interpolation":"LINEAR","output":30},{"input":31,"interpolation":"LINEAR","output":32}]}],"asset":{"extras":{"author":"Stainless Reality (https://sketchfab.com/mp5cze)","license":"CC-BY-4.0 (http://creativecommons.org/licenses/by/4.0/)","source":"https://sketchfab.com/3d-models/kettle-for-brewing-ea652105ae1a48b3a3e9e2dd98b983b1","title":"Kettle for Brewing"},"generator":"Sketchfab-9.25.0","version":"2.0"},"bufferViews":[{"buffer":0,"byteLength":99408,"byteOffset":0,"name":"floatBufferViews","target":34963},{"buffer":0,"byteLength":305920,"byteOffset":99408,"byteStride":8,"name":"floatBufferViews","target":34962},{"buffer":0,"byteLength":183552,"byteOffset":405328,"byteStride":12,"name":"floatBufferViews","target":34962},{"buffer":0,"byteLength":122368,"byteOffset":588880,"byteStride":16,"name":"floatBufferViews","target":34962},{"buffer":0,"byteLength":440,"byteOffset":711248,"name":"floatBufferViews"},{"buffer":0,"byteLength":36,"byteOffset":711688,"byteStride":12,"name":"floatBufferViews"},{"buffer":0,"byteLength":1712,"byteOffset":711724,"byteStride":16,"name":"floatBufferViews"}],"buffers":[{"byteLength":713436,"uri":"data:application/octet-stream;base64,"}],"images":[{"uri":"data:application/octet-stream;base64,"},{"uri":"data:application/octet-stream;base64,"},{"uri":"data:application/octet-stream;base64,"}],"materials":[{"doubleSided":false,"name":"Kettle","normalTexture":{"index":2,"scale":1,"texCoord":0},"occlusionTexture":{"index":1,"strength":1,"texCoord":0},"pbrMetallicRoughness":{"baseColorFactor":[1,1,1,1],"baseColorTexture":{"index":0,"texCoord":0},"metallicFactor":1,"metallicRoughnessTexture":{"index":1,"texCoord":0},"roughnessFactor":1}}],"meshes":[{"primitives":[{"attributes":{"NORMAL":1,"POSITION":0,"TANGENT":2,"TEXCOORD_0":3,"TEXCOORD_1":4,"TEXCOORD_2":5,"TEXCOORD_3":6,"TEXCOORD_4":7},"indices":8,"material":0,"mode":4}]},{"primitives":[{"attributes":{"NORMAL":10,"POSITION":9,"TANGENT":11,"TEXCOORD_0":12,"TEXCOORD_1":13,"TEXCOORD_2":14,"TEXCOORD_3":15,"TEXCOORD_4":16},"indices":17,"material":0,"mode":4}]},{"primitives":[{"attributes":{"NORMAL":19,"POSITION":18,"TANGENT":20,"TEXCOORD_0":21,"TEXCOORD_1":22,"TEXCOORD_2":23,"TEXCOORD_3":24,"TEXCOORD_4":25},"indices":26,"material":0,"mode":4}]}],"nodes":[{"children":[1],"name":"RootNode (gltf orientation matrix)","rotation":[-0.7071067811865475,0,0,0.7071067811865476]},{"children":[2],"name":"RootNode (model correction matrix)"},{"children":[3],"name":"root"},{"children":[4,6,8],"matrix":[1,0,0,0,0,2.220446049250313e-16,1,0,0,-1,2.220446049250313e-16,0,0,0,0,1],"name":"GLTF_SceneRootNode"},{"children":[5],"name":"Manway.001_0","translation":[0.33774566650390625,0.9956053495407104,-0.9138097167015076]},{"mesh":0,"name":""},{"children":[7],"matrix":[1,0,0,0,0,1,0,0,0,0,1,0,-0.046637631952762604,-0.0030976533889770508,-0.21029654145240784,1],"name":"KettleJoined.006_1"},{"mesh":1,"name":""},{"children":[9],"name":"Lid.004_2","rotation":[-0.8505511283874512,0.0669398382306099,-0.040925417095422745,0.5200067162513733],"translation":[0.42574119567871094,2.0313572883605957,0.02758769690990448]},{"mesh":2,"name":""}],"samplers":[{"magFilter":9729,"minFilter":9987,"wrapS":10497,"wrapT":10497}],"scene":0,"scenes":[{"name":"OSG_Scene","nodes":[0]}],"textures":[{"sampler":0,"source":0},{"sampler":0,"source":1},{"sampler":0,"source":2}]}